G04 #@! TF.FileFunction,Copper,L2,Bot,Signal*
%FSLAX46Y46*%
G04 Gerber Fmt 4.6, Leading zero omitted, Abs format (unit mm)*
G04 Created by KiCad (PCBNEW 4.0.6-e0-6349~53~ubuntu16.04.1) date Fri Jul 14 14:26:54 2017*
%MOMM*%
%LPD*%
G01*
G04 APERTURE LIST*
%ADD10C,0.100000*%
%ADD11R,1.727200X1.727200*%
%ADD12O,1.727200X1.727200*%
%ADD13R,2.000000X3.800000*%
%ADD14R,2.000000X1.500000*%
%ADD15R,1.600000X1.600000*%
%ADD16C,1.600000*%
%ADD17R,1.350000X0.400000*%
%ADD18O,0.950000X1.250000*%
%ADD19O,1.550000X1.000000*%
%ADD20R,1.700000X1.700000*%
%ADD21O,1.700000X1.700000*%
%ADD22C,1.524000*%
%ADD23R,1.524000X1.524000*%
%ADD24O,1.600000X1.600000*%
%ADD25C,2.000000*%
%ADD26C,4.064000*%
%ADD27C,0.400000*%
%ADD28C,1.000000*%
%ADD29C,0.254000*%
G04 APERTURE END LIST*
D10*
D11*
X185420000Y-93980000D03*
D12*
X187960000Y-93980000D03*
X185420000Y-96520000D03*
X187960000Y-96520000D03*
X185420000Y-99060000D03*
X187960000Y-99060000D03*
X185420000Y-101600000D03*
X187960000Y-101600000D03*
D13*
X170790000Y-110490000D03*
D14*
X164490000Y-110490000D03*
X164490000Y-108190000D03*
X164490000Y-112790000D03*
D15*
X158750000Y-107950000D03*
D16*
X158750000Y-110450000D03*
D15*
X176530000Y-107950000D03*
D16*
X176530000Y-110450000D03*
D17*
X153750000Y-97820000D03*
X153750000Y-97170000D03*
X153750000Y-96520000D03*
X153750000Y-95870000D03*
X153750000Y-95220000D03*
D18*
X153750000Y-99020000D03*
X153750000Y-94020000D03*
D19*
X151050000Y-100020000D03*
X151050000Y-93020000D03*
D20*
X185420000Y-109220000D03*
D21*
X187960000Y-109220000D03*
X190500000Y-109220000D03*
X193040000Y-109220000D03*
X195580000Y-109220000D03*
X198120000Y-109220000D03*
D20*
X151130000Y-107950000D03*
D21*
X151130000Y-110490000D03*
D20*
X185420000Y-86360000D03*
D21*
X187960000Y-86360000D03*
X190500000Y-86360000D03*
X193040000Y-86360000D03*
X195580000Y-86360000D03*
X198120000Y-86360000D03*
X200660000Y-86360000D03*
X203200000Y-86360000D03*
D22*
X158750000Y-101600000D03*
X158750000Y-99060000D03*
X158750000Y-96520000D03*
X158750000Y-93980000D03*
X158750000Y-91440000D03*
D23*
X151130000Y-91440000D03*
X151130000Y-101600000D03*
D16*
X177800000Y-88900000D03*
D24*
X177800000Y-99060000D03*
D25*
X166370000Y-93400000D03*
X166370000Y-88900000D03*
X172870000Y-93400000D03*
X172870000Y-88900000D03*
X166370000Y-103560000D03*
X166370000Y-99060000D03*
X172870000Y-103560000D03*
X172870000Y-99060000D03*
D26*
X209550000Y-82550000D03*
X209550000Y-115570000D03*
X151130000Y-115570000D03*
X151130000Y-82550000D03*
D27*
X153750000Y-97820000D02*
X153259000Y-97820000D01*
X153259000Y-97820000D02*
X152527000Y-98552000D01*
X152527000Y-106553000D02*
X151130000Y-107950000D01*
X152527000Y-98552000D02*
X152527000Y-106553000D01*
D28*
X163220000Y-105410000D02*
X163220000Y-106920000D01*
X163220000Y-106920000D02*
X164490000Y-108190000D01*
X163220000Y-105650000D02*
X163220000Y-105410000D01*
X163220000Y-105410000D02*
X163220000Y-88240000D01*
X163220000Y-88240000D02*
X162560000Y-88900000D01*
D27*
X153750000Y-97820000D02*
X153670000Y-97790000D01*
D28*
X158750000Y-91440000D02*
X160020000Y-91440000D01*
X160020000Y-91440000D02*
X162560000Y-88900000D01*
X162560000Y-88900000D02*
X165100000Y-86360000D01*
X165100000Y-86360000D02*
X185420000Y-86360000D01*
X151130000Y-107950000D02*
X158750000Y-107950000D01*
X158750000Y-107950000D02*
X161050000Y-105650000D01*
X161050000Y-105650000D02*
X163220000Y-105650000D01*
D27*
X153750000Y-95220000D02*
X152370000Y-95220000D01*
X152370000Y-95220000D02*
X152273000Y-95123000D01*
X153750000Y-95220000D02*
X155037000Y-95220000D01*
X155037000Y-95220000D02*
X155067000Y-95250000D01*
X153670000Y-95250000D02*
X153670000Y-93980000D01*
X153670000Y-93980000D02*
X153750000Y-94020000D01*
X153750000Y-95220000D02*
X153670000Y-95250000D01*
D28*
X164490000Y-110490000D02*
X170790000Y-110490000D01*
X170790000Y-110490000D02*
X173330000Y-107950000D01*
X173330000Y-107950000D02*
X176530000Y-107950000D01*
X177800000Y-99060000D02*
X182880000Y-99060000D01*
X182880000Y-99060000D02*
X185420000Y-96520000D01*
X187960000Y-86360000D02*
X187960000Y-87630000D01*
X177800000Y-97790000D02*
X177800000Y-99060000D01*
X187960000Y-87630000D02*
X177800000Y-97790000D01*
X176530000Y-107950000D02*
X176530000Y-100330000D01*
X176530000Y-100330000D02*
X177800000Y-99060000D01*
X176530000Y-107950000D02*
X179070000Y-107950000D01*
X179070000Y-107950000D02*
X185420000Y-101600000D01*
D27*
X187960000Y-101600000D02*
X200660000Y-88900000D01*
X200660000Y-88900000D02*
X200660000Y-86360000D01*
X187960000Y-101600000D02*
X187960000Y-104140000D01*
X187960000Y-104140000D02*
X193040000Y-109220000D01*
D29*
G36*
X208041239Y-80287709D02*
X207290345Y-81037293D01*
X206883464Y-82017173D01*
X206882538Y-83078172D01*
X207287709Y-84058761D01*
X208037293Y-84809655D01*
X209017173Y-85216536D01*
X210078172Y-85217462D01*
X211058761Y-84812291D01*
X211809655Y-84062707D01*
X211963000Y-83693411D01*
X211963000Y-88773000D01*
X201495000Y-88773000D01*
X201495000Y-87582841D01*
X201710054Y-87439147D01*
X201930000Y-87109974D01*
X202149946Y-87439147D01*
X202631715Y-87761054D01*
X203200000Y-87874093D01*
X203768285Y-87761054D01*
X204250054Y-87439147D01*
X204571961Y-86957378D01*
X204685000Y-86389093D01*
X204685000Y-86330907D01*
X204571961Y-85762622D01*
X204250054Y-85280853D01*
X203768285Y-84958946D01*
X203200000Y-84845907D01*
X202631715Y-84958946D01*
X202149946Y-85280853D01*
X201930000Y-85610026D01*
X201710054Y-85280853D01*
X201228285Y-84958946D01*
X200660000Y-84845907D01*
X200091715Y-84958946D01*
X199609946Y-85280853D01*
X199390000Y-85610026D01*
X199170054Y-85280853D01*
X198688285Y-84958946D01*
X198120000Y-84845907D01*
X197551715Y-84958946D01*
X197069946Y-85280853D01*
X196850000Y-85610026D01*
X196630054Y-85280853D01*
X196148285Y-84958946D01*
X195580000Y-84845907D01*
X195011715Y-84958946D01*
X194529946Y-85280853D01*
X194302298Y-85621553D01*
X194235183Y-85478642D01*
X193806924Y-85088355D01*
X193396890Y-84918524D01*
X193167000Y-85039845D01*
X193167000Y-86233000D01*
X193187000Y-86233000D01*
X193187000Y-86487000D01*
X193167000Y-86487000D01*
X193167000Y-87680155D01*
X193396890Y-87801476D01*
X193806924Y-87631645D01*
X194235183Y-87241358D01*
X194302298Y-87098447D01*
X194529946Y-87439147D01*
X195011715Y-87761054D01*
X195580000Y-87874093D01*
X196148285Y-87761054D01*
X196630054Y-87439147D01*
X196850000Y-87109974D01*
X197069946Y-87439147D01*
X197551715Y-87761054D01*
X198120000Y-87874093D01*
X198688285Y-87761054D01*
X199170054Y-87439147D01*
X199390000Y-87109974D01*
X199609946Y-87439147D01*
X199825000Y-87582841D01*
X199825000Y-88554132D01*
X199606132Y-88773000D01*
X193040000Y-88773000D01*
X192990590Y-88783006D01*
X192948965Y-88811447D01*
X192921685Y-88853841D01*
X192913000Y-88900000D01*
X192913000Y-95466132D01*
X189459949Y-98919183D01*
X189373885Y-98486511D01*
X189049029Y-98000330D01*
X188734248Y-97790000D01*
X189049029Y-97579670D01*
X189373885Y-97093489D01*
X189487959Y-96520000D01*
X189373885Y-95946511D01*
X189049029Y-95460330D01*
X188725772Y-95244336D01*
X188848490Y-95186821D01*
X189242688Y-94754947D01*
X189414958Y-94339026D01*
X189293817Y-94107000D01*
X188087000Y-94107000D01*
X188087000Y-94127000D01*
X187833000Y-94127000D01*
X187833000Y-94107000D01*
X187813000Y-94107000D01*
X187813000Y-93853000D01*
X187833000Y-93853000D01*
X187833000Y-92645531D01*
X188087000Y-92645531D01*
X188087000Y-93853000D01*
X189293817Y-93853000D01*
X189414958Y-93620974D01*
X189242688Y-93205053D01*
X188848490Y-92773179D01*
X188319027Y-92525032D01*
X188087000Y-92645531D01*
X187833000Y-92645531D01*
X187600973Y-92525032D01*
X187071510Y-92773179D01*
X186901505Y-92959433D01*
X186886762Y-92881083D01*
X186747690Y-92664959D01*
X186535490Y-92519969D01*
X186283600Y-92468960D01*
X184726172Y-92468960D01*
X188762566Y-88432566D01*
X188844752Y-88309566D01*
X189008603Y-88064346D01*
X189095000Y-87630000D01*
X189095000Y-87312016D01*
X189237702Y-87098447D01*
X189304817Y-87241358D01*
X189733076Y-87631645D01*
X190143110Y-87801476D01*
X190373000Y-87680155D01*
X190373000Y-86487000D01*
X190627000Y-86487000D01*
X190627000Y-87680155D01*
X190856890Y-87801476D01*
X191266924Y-87631645D01*
X191695183Y-87241358D01*
X191770000Y-87082046D01*
X191844817Y-87241358D01*
X192273076Y-87631645D01*
X192683110Y-87801476D01*
X192913000Y-87680155D01*
X192913000Y-86487000D01*
X190627000Y-86487000D01*
X190373000Y-86487000D01*
X190353000Y-86487000D01*
X190353000Y-86233000D01*
X190373000Y-86233000D01*
X190373000Y-85039845D01*
X190627000Y-85039845D01*
X190627000Y-86233000D01*
X192913000Y-86233000D01*
X192913000Y-85039845D01*
X192683110Y-84918524D01*
X192273076Y-85088355D01*
X191844817Y-85478642D01*
X191770000Y-85637954D01*
X191695183Y-85478642D01*
X191266924Y-85088355D01*
X190856890Y-84918524D01*
X190627000Y-85039845D01*
X190373000Y-85039845D01*
X190143110Y-84918524D01*
X189733076Y-85088355D01*
X189304817Y-85478642D01*
X189237702Y-85621553D01*
X189010054Y-85280853D01*
X188528285Y-84958946D01*
X187960000Y-84845907D01*
X187391715Y-84958946D01*
X186909946Y-85280853D01*
X186882150Y-85322452D01*
X186873162Y-85274683D01*
X186734090Y-85058559D01*
X186521890Y-84913569D01*
X186270000Y-84862560D01*
X184570000Y-84862560D01*
X184334683Y-84906838D01*
X184118559Y-85045910D01*
X183996192Y-85225000D01*
X165100000Y-85225000D01*
X164665654Y-85311397D01*
X164297433Y-85557434D01*
X161757436Y-88097432D01*
X161757433Y-88097434D01*
X159570409Y-90284459D01*
X159542370Y-90256371D01*
X159029100Y-90043243D01*
X158473339Y-90042758D01*
X157959697Y-90254990D01*
X157566371Y-90647630D01*
X157353243Y-91160900D01*
X157352758Y-91716661D01*
X157564990Y-92230303D01*
X157957630Y-92623629D01*
X158165512Y-92709949D01*
X157959697Y-92794990D01*
X157566371Y-93187630D01*
X157353243Y-93700900D01*
X157352758Y-94256661D01*
X157564990Y-94770303D01*
X157957630Y-95163629D01*
X158165512Y-95249949D01*
X157959697Y-95334990D01*
X157566371Y-95727630D01*
X157353243Y-96240900D01*
X157352758Y-96796661D01*
X157564990Y-97310303D01*
X157957630Y-97703629D01*
X158165512Y-97789949D01*
X157959697Y-97874990D01*
X157566371Y-98267630D01*
X157353243Y-98780900D01*
X157352758Y-99336661D01*
X157564990Y-99850303D01*
X157957630Y-100243629D01*
X158149727Y-100323395D01*
X158018857Y-100377603D01*
X157949392Y-100619787D01*
X158750000Y-101420395D01*
X159550608Y-100619787D01*
X159481143Y-100377603D01*
X159340682Y-100327491D01*
X159540303Y-100245010D01*
X159933629Y-99852370D01*
X160146757Y-99339100D01*
X160147242Y-98783339D01*
X159935010Y-98269697D01*
X159542370Y-97876371D01*
X159334488Y-97790051D01*
X159540303Y-97705010D01*
X159933629Y-97312370D01*
X160146757Y-96799100D01*
X160147242Y-96243339D01*
X159935010Y-95729697D01*
X159542370Y-95336371D01*
X159334488Y-95250051D01*
X159540303Y-95165010D01*
X159933629Y-94772370D01*
X160146757Y-94259100D01*
X160147242Y-93703339D01*
X159935010Y-93189697D01*
X159542370Y-92796371D01*
X159334488Y-92710051D01*
X159540303Y-92625010D01*
X159590400Y-92575000D01*
X160020000Y-92575000D01*
X160454346Y-92488603D01*
X160822566Y-92242566D01*
X162085000Y-90980132D01*
X162085000Y-104515000D01*
X161050000Y-104515000D01*
X160615654Y-104601397D01*
X160449329Y-104712532D01*
X160247434Y-104847434D01*
X158592308Y-106502560D01*
X157950000Y-106502560D01*
X157714683Y-106546838D01*
X157498559Y-106685910D01*
X157410356Y-106815000D01*
X153309885Y-106815000D01*
X153362000Y-106553000D01*
X153362000Y-102580213D01*
X157949392Y-102580213D01*
X158018857Y-102822397D01*
X158542302Y-103009144D01*
X159097368Y-102981362D01*
X159481143Y-102822397D01*
X159550608Y-102580213D01*
X158750000Y-101779605D01*
X157949392Y-102580213D01*
X153362000Y-102580213D01*
X153362000Y-101392302D01*
X157340856Y-101392302D01*
X157368638Y-101947368D01*
X157527603Y-102331143D01*
X157769787Y-102400608D01*
X158570395Y-101600000D01*
X158929605Y-101600000D01*
X159730213Y-102400608D01*
X159972397Y-102331143D01*
X160159144Y-101807698D01*
X160131362Y-101252632D01*
X159972397Y-100868857D01*
X159730213Y-100799392D01*
X158929605Y-101600000D01*
X158570395Y-101600000D01*
X157769787Y-100799392D01*
X157527603Y-100868857D01*
X157340856Y-101392302D01*
X153362000Y-101392302D01*
X153362000Y-100195014D01*
X153452062Y-100239268D01*
X153623000Y-100112734D01*
X153623000Y-99147000D01*
X153877000Y-99147000D01*
X153877000Y-100112734D01*
X154047938Y-100239268D01*
X154421821Y-100055552D01*
X154709568Y-99731049D01*
X154851229Y-99321131D01*
X154702563Y-99147000D01*
X153877000Y-99147000D01*
X153623000Y-99147000D01*
X153603000Y-99147000D01*
X153603000Y-98893000D01*
X153623000Y-98893000D01*
X153623000Y-98873000D01*
X153877000Y-98873000D01*
X153877000Y-98893000D01*
X154702563Y-98893000D01*
X154851229Y-98718869D01*
X154789440Y-98540074D01*
X154876441Y-98484090D01*
X155021431Y-98271890D01*
X155072440Y-98020000D01*
X155072440Y-97620000D01*
X155048056Y-97490411D01*
X155072440Y-97370000D01*
X155072440Y-96970000D01*
X155048056Y-96840411D01*
X155072440Y-96720000D01*
X155072440Y-96320000D01*
X155048056Y-96190411D01*
X155072440Y-96070000D01*
X155072440Y-95670000D01*
X155052550Y-95564295D01*
X155060000Y-95546310D01*
X155060000Y-95478750D01*
X155030996Y-95449746D01*
X155028162Y-95434683D01*
X154889090Y-95218559D01*
X154744844Y-95120000D01*
X154901250Y-95120000D01*
X155060000Y-94961250D01*
X155060000Y-94893690D01*
X154963327Y-94660301D01*
X154792910Y-94489885D01*
X154851229Y-94321131D01*
X154702563Y-94147000D01*
X153877000Y-94147000D01*
X153877000Y-94167000D01*
X153623000Y-94167000D01*
X153623000Y-94147000D01*
X152797437Y-94147000D01*
X152648771Y-94321131D01*
X152707090Y-94489885D01*
X152536673Y-94660301D01*
X152440000Y-94893690D01*
X152440000Y-94961250D01*
X152598750Y-95120000D01*
X152757067Y-95120000D01*
X152623559Y-95205910D01*
X152478569Y-95418110D01*
X152472965Y-95445785D01*
X152440000Y-95478750D01*
X152440000Y-95546310D01*
X152448468Y-95566753D01*
X152427560Y-95670000D01*
X152427560Y-96070000D01*
X152451944Y-96199589D01*
X152427560Y-96320000D01*
X152427560Y-96720000D01*
X152451944Y-96849589D01*
X152427560Y-96970000D01*
X152427560Y-97370000D01*
X152443487Y-97454645D01*
X151936566Y-97961566D01*
X151755561Y-98232459D01*
X151692000Y-98552000D01*
X151692000Y-98961292D01*
X151452000Y-98885000D01*
X151177000Y-98885000D01*
X151177000Y-99893000D01*
X151197000Y-99893000D01*
X151197000Y-100147000D01*
X151177000Y-100147000D01*
X151177000Y-101155000D01*
X151257000Y-101155000D01*
X151257000Y-101473000D01*
X151277000Y-101473000D01*
X151277000Y-101727000D01*
X151257000Y-101727000D01*
X151257000Y-102838250D01*
X151415750Y-102997000D01*
X151692000Y-102997000D01*
X151692000Y-106207132D01*
X151446572Y-106452560D01*
X150280000Y-106452560D01*
X150044683Y-106496838D01*
X149828559Y-106635910D01*
X149683569Y-106848110D01*
X149632560Y-107100000D01*
X149632560Y-108800000D01*
X149676838Y-109035317D01*
X149815910Y-109251441D01*
X150028110Y-109396431D01*
X150142301Y-109419555D01*
X149934817Y-109608642D01*
X149688514Y-110133108D01*
X149809181Y-110363000D01*
X151003000Y-110363000D01*
X151003000Y-110343000D01*
X151257000Y-110343000D01*
X151257000Y-110363000D01*
X152450819Y-110363000D01*
X152518937Y-110233223D01*
X157303035Y-110233223D01*
X157330222Y-110803454D01*
X157496136Y-111204005D01*
X157742255Y-111278139D01*
X158570395Y-110450000D01*
X158929605Y-110450000D01*
X159757745Y-111278139D01*
X160003864Y-111204005D01*
X160196965Y-110666777D01*
X160169778Y-110096546D01*
X160003864Y-109695995D01*
X159757745Y-109621861D01*
X158929605Y-110450000D01*
X158570395Y-110450000D01*
X157742255Y-109621861D01*
X157496136Y-109695995D01*
X157303035Y-110233223D01*
X152518937Y-110233223D01*
X152571486Y-110133108D01*
X152325183Y-109608642D01*
X152119496Y-109421192D01*
X152215317Y-109403162D01*
X152431441Y-109264090D01*
X152553808Y-109085000D01*
X157410982Y-109085000D01*
X157485910Y-109201441D01*
X157698110Y-109346431D01*
X157936201Y-109394646D01*
X157921861Y-109442255D01*
X158750000Y-110270395D01*
X159578139Y-109442255D01*
X159563855Y-109394833D01*
X159785317Y-109353162D01*
X160001441Y-109214090D01*
X160146431Y-109001890D01*
X160197440Y-108750000D01*
X160197440Y-108107692D01*
X161520132Y-106785000D01*
X162085000Y-106785000D01*
X162085000Y-106920000D01*
X162171397Y-107354346D01*
X162355891Y-107630460D01*
X162417434Y-107722566D01*
X162842560Y-108147692D01*
X162842560Y-108940000D01*
X162886838Y-109175317D01*
X162993759Y-109341477D01*
X162893569Y-109488110D01*
X162842560Y-109740000D01*
X162842560Y-111240000D01*
X162886838Y-111475317D01*
X162992482Y-111639492D01*
X162951673Y-111680301D01*
X162855000Y-111913690D01*
X162855000Y-112504250D01*
X163013750Y-112663000D01*
X164363000Y-112663000D01*
X164363000Y-112643000D01*
X164617000Y-112643000D01*
X164617000Y-112663000D01*
X165966250Y-112663000D01*
X166125000Y-112504250D01*
X166125000Y-111913690D01*
X166028327Y-111680301D01*
X165986366Y-111638340D01*
X165995481Y-111625000D01*
X169142560Y-111625000D01*
X169142560Y-112390000D01*
X169186838Y-112625317D01*
X169325910Y-112841441D01*
X169538110Y-112986431D01*
X169790000Y-113037440D01*
X171790000Y-113037440D01*
X172025317Y-112993162D01*
X172241441Y-112854090D01*
X172386431Y-112641890D01*
X172437440Y-112390000D01*
X172437440Y-111457745D01*
X175701861Y-111457745D01*
X175775995Y-111703864D01*
X176313223Y-111896965D01*
X176883454Y-111869778D01*
X177284005Y-111703864D01*
X177358139Y-111457745D01*
X176530000Y-110629605D01*
X175701861Y-111457745D01*
X172437440Y-111457745D01*
X172437440Y-110447692D01*
X172651909Y-110233223D01*
X175083035Y-110233223D01*
X175110222Y-110803454D01*
X175276136Y-111204005D01*
X175522255Y-111278139D01*
X176350395Y-110450000D01*
X176709605Y-110450000D01*
X177537745Y-111278139D01*
X177783864Y-111204005D01*
X177976965Y-110666777D01*
X177949778Y-110096546D01*
X177783864Y-109695995D01*
X177537745Y-109621861D01*
X176709605Y-110450000D01*
X176350395Y-110450000D01*
X175522255Y-109621861D01*
X175276136Y-109695995D01*
X175083035Y-110233223D01*
X172651909Y-110233223D01*
X173800133Y-109085000D01*
X175190982Y-109085000D01*
X175265910Y-109201441D01*
X175478110Y-109346431D01*
X175716201Y-109394646D01*
X175701861Y-109442255D01*
X176530000Y-110270395D01*
X177294644Y-109505750D01*
X183935000Y-109505750D01*
X183935000Y-110196309D01*
X184031673Y-110429698D01*
X184210301Y-110608327D01*
X184443690Y-110705000D01*
X185134250Y-110705000D01*
X185293000Y-110546250D01*
X185293000Y-109347000D01*
X184093750Y-109347000D01*
X183935000Y-109505750D01*
X177294644Y-109505750D01*
X177358139Y-109442255D01*
X177343855Y-109394833D01*
X177565317Y-109353162D01*
X177781441Y-109214090D01*
X177869644Y-109085000D01*
X179070000Y-109085000D01*
X179504346Y-108998603D01*
X179872566Y-108752566D01*
X180381441Y-108243691D01*
X183935000Y-108243691D01*
X183935000Y-108934250D01*
X184093750Y-109093000D01*
X185293000Y-109093000D01*
X185293000Y-107893750D01*
X185134250Y-107735000D01*
X184443690Y-107735000D01*
X184210301Y-107831673D01*
X184031673Y-108010302D01*
X183935000Y-108243691D01*
X180381441Y-108243691D01*
X185545694Y-103079438D01*
X186022848Y-102984526D01*
X186509029Y-102659670D01*
X186690000Y-102388828D01*
X186870971Y-102659670D01*
X187125000Y-102829407D01*
X187125000Y-104140000D01*
X187188561Y-104459541D01*
X187287380Y-104607434D01*
X187369566Y-104730434D01*
X190370749Y-107731617D01*
X189931715Y-107818946D01*
X189449946Y-108140853D01*
X189230000Y-108470026D01*
X189010054Y-108140853D01*
X188528285Y-107818946D01*
X187960000Y-107705907D01*
X187391715Y-107818946D01*
X186909946Y-108140853D01*
X186880597Y-108184777D01*
X186808327Y-108010302D01*
X186629699Y-107831673D01*
X186396310Y-107735000D01*
X185705750Y-107735000D01*
X185547000Y-107893750D01*
X185547000Y-109093000D01*
X185567000Y-109093000D01*
X185567000Y-109347000D01*
X185547000Y-109347000D01*
X185547000Y-110546250D01*
X185705750Y-110705000D01*
X186396310Y-110705000D01*
X186629699Y-110608327D01*
X186808327Y-110429698D01*
X186880597Y-110255223D01*
X186909946Y-110299147D01*
X187391715Y-110621054D01*
X187960000Y-110734093D01*
X188528285Y-110621054D01*
X189010054Y-110299147D01*
X189230000Y-109969974D01*
X189449946Y-110299147D01*
X189931715Y-110621054D01*
X190500000Y-110734093D01*
X191068285Y-110621054D01*
X191550054Y-110299147D01*
X191770000Y-109969974D01*
X191989946Y-110299147D01*
X192471715Y-110621054D01*
X193040000Y-110734093D01*
X193608285Y-110621054D01*
X194090054Y-110299147D01*
X194310000Y-109969974D01*
X194529946Y-110299147D01*
X195011715Y-110621054D01*
X195580000Y-110734093D01*
X196148285Y-110621054D01*
X196630054Y-110299147D01*
X196850000Y-109969974D01*
X197069946Y-110299147D01*
X197551715Y-110621054D01*
X198120000Y-110734093D01*
X198688285Y-110621054D01*
X199170054Y-110299147D01*
X199491961Y-109817378D01*
X199605000Y-109249093D01*
X199605000Y-109190907D01*
X199491961Y-108622622D01*
X199170054Y-108140853D01*
X198688285Y-107818946D01*
X198120000Y-107705907D01*
X197551715Y-107818946D01*
X197069946Y-108140853D01*
X196850000Y-108470026D01*
X196630054Y-108140853D01*
X196148285Y-107818946D01*
X195580000Y-107705907D01*
X195011715Y-107818946D01*
X194529946Y-108140853D01*
X194310000Y-108470026D01*
X194090054Y-108140853D01*
X193608285Y-107818946D01*
X193040000Y-107705907D01*
X192762061Y-107761193D01*
X188795000Y-103794132D01*
X188795000Y-102829407D01*
X189049029Y-102659670D01*
X189373885Y-102173489D01*
X189487959Y-101600000D01*
X189430373Y-101310495D01*
X192913000Y-97827868D01*
X192913000Y-106680000D01*
X192923006Y-106729410D01*
X192951447Y-106771035D01*
X192993841Y-106798315D01*
X193040000Y-106807000D01*
X211963000Y-106807000D01*
X211963000Y-114425983D01*
X211812291Y-114061239D01*
X211062707Y-113310345D01*
X210082827Y-112903464D01*
X209021828Y-112902538D01*
X208041239Y-113307709D01*
X207290345Y-114057293D01*
X206883464Y-115037173D01*
X206882538Y-116098172D01*
X207287709Y-117078761D01*
X208037293Y-117829655D01*
X208406589Y-117983000D01*
X152274017Y-117983000D01*
X152638761Y-117832291D01*
X153389655Y-117082707D01*
X153796536Y-116102827D01*
X153797462Y-115041828D01*
X153392291Y-114061239D01*
X152642707Y-113310345D01*
X152077739Y-113075750D01*
X162855000Y-113075750D01*
X162855000Y-113666310D01*
X162951673Y-113899699D01*
X163130302Y-114078327D01*
X163363691Y-114175000D01*
X164204250Y-114175000D01*
X164363000Y-114016250D01*
X164363000Y-112917000D01*
X164617000Y-112917000D01*
X164617000Y-114016250D01*
X164775750Y-114175000D01*
X165616309Y-114175000D01*
X165849698Y-114078327D01*
X166028327Y-113899699D01*
X166125000Y-113666310D01*
X166125000Y-113075750D01*
X165966250Y-112917000D01*
X164617000Y-112917000D01*
X164363000Y-112917000D01*
X163013750Y-112917000D01*
X162855000Y-113075750D01*
X152077739Y-113075750D01*
X151662827Y-112903464D01*
X150601828Y-112902538D01*
X149621239Y-113307709D01*
X148870345Y-114057293D01*
X148717000Y-114426589D01*
X148717000Y-110846892D01*
X149688514Y-110846892D01*
X149934817Y-111371358D01*
X150363076Y-111761645D01*
X150773110Y-111931476D01*
X151003000Y-111810155D01*
X151003000Y-110617000D01*
X151257000Y-110617000D01*
X151257000Y-111810155D01*
X151486890Y-111931476D01*
X151896924Y-111761645D01*
X152230391Y-111457745D01*
X157921861Y-111457745D01*
X157995995Y-111703864D01*
X158533223Y-111896965D01*
X159103454Y-111869778D01*
X159504005Y-111703864D01*
X159578139Y-111457745D01*
X158750000Y-110629605D01*
X157921861Y-111457745D01*
X152230391Y-111457745D01*
X152325183Y-111371358D01*
X152571486Y-110846892D01*
X152450819Y-110617000D01*
X151257000Y-110617000D01*
X151003000Y-110617000D01*
X149809181Y-110617000D01*
X149688514Y-110846892D01*
X148717000Y-110846892D01*
X148717000Y-101885750D01*
X149733000Y-101885750D01*
X149733000Y-102488309D01*
X149829673Y-102721698D01*
X150008301Y-102900327D01*
X150241690Y-102997000D01*
X150844250Y-102997000D01*
X151003000Y-102838250D01*
X151003000Y-101727000D01*
X149891750Y-101727000D01*
X149733000Y-101885750D01*
X148717000Y-101885750D01*
X148717000Y-100321874D01*
X149680881Y-100321874D01*
X149796734Y-100557823D01*
X149733000Y-100711691D01*
X149733000Y-101314250D01*
X149891750Y-101473000D01*
X151003000Y-101473000D01*
X151003000Y-100361750D01*
X150923000Y-100281750D01*
X150923000Y-100147000D01*
X149807046Y-100147000D01*
X149680881Y-100321874D01*
X148717000Y-100321874D01*
X148717000Y-99718126D01*
X149680881Y-99718126D01*
X149807046Y-99893000D01*
X150923000Y-99893000D01*
X150923000Y-98885000D01*
X150648000Y-98885000D01*
X150223322Y-99019998D01*
X149882632Y-99307237D01*
X149680881Y-99718126D01*
X148717000Y-99718126D01*
X148717000Y-93321874D01*
X149680881Y-93321874D01*
X149882632Y-93732763D01*
X150223322Y-94020002D01*
X150648000Y-94155000D01*
X150923000Y-94155000D01*
X150923000Y-93147000D01*
X151177000Y-93147000D01*
X151177000Y-94155000D01*
X151452000Y-94155000D01*
X151876678Y-94020002D01*
X152217368Y-93732763D01*
X152224190Y-93718869D01*
X152648771Y-93718869D01*
X152797437Y-93893000D01*
X153623000Y-93893000D01*
X153623000Y-92927266D01*
X153877000Y-92927266D01*
X153877000Y-93893000D01*
X154702563Y-93893000D01*
X154851229Y-93718869D01*
X154709568Y-93308951D01*
X154421821Y-92984448D01*
X154047938Y-92800732D01*
X153877000Y-92927266D01*
X153623000Y-92927266D01*
X153452062Y-92800732D01*
X153078179Y-92984448D01*
X152790432Y-93308951D01*
X152648771Y-93718869D01*
X152224190Y-93718869D01*
X152419119Y-93321874D01*
X152292954Y-93147000D01*
X151177000Y-93147000D01*
X150923000Y-93147000D01*
X149807046Y-93147000D01*
X149680881Y-93321874D01*
X148717000Y-93321874D01*
X148717000Y-92718126D01*
X149680881Y-92718126D01*
X149807046Y-92893000D01*
X150923000Y-92893000D01*
X150923000Y-92758250D01*
X151003000Y-92678250D01*
X151003000Y-91885000D01*
X151177000Y-91885000D01*
X151177000Y-92893000D01*
X152292954Y-92893000D01*
X152419119Y-92718126D01*
X152371296Y-92620729D01*
X152430327Y-92561698D01*
X152527000Y-92328309D01*
X152527000Y-91725750D01*
X152368250Y-91567000D01*
X151257000Y-91567000D01*
X151257000Y-91885000D01*
X151177000Y-91885000D01*
X151003000Y-91885000D01*
X151003000Y-91567000D01*
X149891750Y-91567000D01*
X149733000Y-91725750D01*
X149733000Y-92328309D01*
X149796734Y-92482177D01*
X149680881Y-92718126D01*
X148717000Y-92718126D01*
X148717000Y-90551691D01*
X149733000Y-90551691D01*
X149733000Y-91154250D01*
X149891750Y-91313000D01*
X151003000Y-91313000D01*
X151003000Y-90201750D01*
X151257000Y-90201750D01*
X151257000Y-91313000D01*
X152368250Y-91313000D01*
X152527000Y-91154250D01*
X152527000Y-90551691D01*
X152430327Y-90318302D01*
X152251699Y-90139673D01*
X152018310Y-90043000D01*
X151415750Y-90043000D01*
X151257000Y-90201750D01*
X151003000Y-90201750D01*
X150844250Y-90043000D01*
X150241690Y-90043000D01*
X150008301Y-90139673D01*
X149829673Y-90318302D01*
X149733000Y-90551691D01*
X148717000Y-90551691D01*
X148717000Y-83694017D01*
X148867709Y-84058761D01*
X149617293Y-84809655D01*
X150597173Y-85216536D01*
X151658172Y-85217462D01*
X152638761Y-84812291D01*
X153389655Y-84062707D01*
X153796536Y-83082827D01*
X153797462Y-82021828D01*
X153392291Y-81041239D01*
X152642707Y-80290345D01*
X152273411Y-80137000D01*
X208405983Y-80137000D01*
X208041239Y-80287709D01*
X208041239Y-80287709D01*
G37*
X208041239Y-80287709D02*
X207290345Y-81037293D01*
X206883464Y-82017173D01*
X206882538Y-83078172D01*
X207287709Y-84058761D01*
X208037293Y-84809655D01*
X209017173Y-85216536D01*
X210078172Y-85217462D01*
X211058761Y-84812291D01*
X211809655Y-84062707D01*
X211963000Y-83693411D01*
X211963000Y-88773000D01*
X201495000Y-88773000D01*
X201495000Y-87582841D01*
X201710054Y-87439147D01*
X201930000Y-87109974D01*
X202149946Y-87439147D01*
X202631715Y-87761054D01*
X203200000Y-87874093D01*
X203768285Y-87761054D01*
X204250054Y-87439147D01*
X204571961Y-86957378D01*
X204685000Y-86389093D01*
X204685000Y-86330907D01*
X204571961Y-85762622D01*
X204250054Y-85280853D01*
X203768285Y-84958946D01*
X203200000Y-84845907D01*
X202631715Y-84958946D01*
X202149946Y-85280853D01*
X201930000Y-85610026D01*
X201710054Y-85280853D01*
X201228285Y-84958946D01*
X200660000Y-84845907D01*
X200091715Y-84958946D01*
X199609946Y-85280853D01*
X199390000Y-85610026D01*
X199170054Y-85280853D01*
X198688285Y-84958946D01*
X198120000Y-84845907D01*
X197551715Y-84958946D01*
X197069946Y-85280853D01*
X196850000Y-85610026D01*
X196630054Y-85280853D01*
X196148285Y-84958946D01*
X195580000Y-84845907D01*
X195011715Y-84958946D01*
X194529946Y-85280853D01*
X194302298Y-85621553D01*
X194235183Y-85478642D01*
X193806924Y-85088355D01*
X193396890Y-84918524D01*
X193167000Y-85039845D01*
X193167000Y-86233000D01*
X193187000Y-86233000D01*
X193187000Y-86487000D01*
X193167000Y-86487000D01*
X193167000Y-87680155D01*
X193396890Y-87801476D01*
X193806924Y-87631645D01*
X194235183Y-87241358D01*
X194302298Y-87098447D01*
X194529946Y-87439147D01*
X195011715Y-87761054D01*
X195580000Y-87874093D01*
X196148285Y-87761054D01*
X196630054Y-87439147D01*
X196850000Y-87109974D01*
X197069946Y-87439147D01*
X197551715Y-87761054D01*
X198120000Y-87874093D01*
X198688285Y-87761054D01*
X199170054Y-87439147D01*
X199390000Y-87109974D01*
X199609946Y-87439147D01*
X199825000Y-87582841D01*
X199825000Y-88554132D01*
X199606132Y-88773000D01*
X193040000Y-88773000D01*
X192990590Y-88783006D01*
X192948965Y-88811447D01*
X192921685Y-88853841D01*
X192913000Y-88900000D01*
X192913000Y-95466132D01*
X189459949Y-98919183D01*
X189373885Y-98486511D01*
X189049029Y-98000330D01*
X188734248Y-97790000D01*
X189049029Y-97579670D01*
X189373885Y-97093489D01*
X189487959Y-96520000D01*
X189373885Y-95946511D01*
X189049029Y-95460330D01*
X188725772Y-95244336D01*
X188848490Y-95186821D01*
X189242688Y-94754947D01*
X189414958Y-94339026D01*
X189293817Y-94107000D01*
X188087000Y-94107000D01*
X188087000Y-94127000D01*
X187833000Y-94127000D01*
X187833000Y-94107000D01*
X187813000Y-94107000D01*
X187813000Y-93853000D01*
X187833000Y-93853000D01*
X187833000Y-92645531D01*
X188087000Y-92645531D01*
X188087000Y-93853000D01*
X189293817Y-93853000D01*
X189414958Y-93620974D01*
X189242688Y-93205053D01*
X188848490Y-92773179D01*
X188319027Y-92525032D01*
X188087000Y-92645531D01*
X187833000Y-92645531D01*
X187600973Y-92525032D01*
X187071510Y-92773179D01*
X186901505Y-92959433D01*
X186886762Y-92881083D01*
X186747690Y-92664959D01*
X186535490Y-92519969D01*
X186283600Y-92468960D01*
X184726172Y-92468960D01*
X188762566Y-88432566D01*
X188844752Y-88309566D01*
X189008603Y-88064346D01*
X189095000Y-87630000D01*
X189095000Y-87312016D01*
X189237702Y-87098447D01*
X189304817Y-87241358D01*
X189733076Y-87631645D01*
X190143110Y-87801476D01*
X190373000Y-87680155D01*
X190373000Y-86487000D01*
X190627000Y-86487000D01*
X190627000Y-87680155D01*
X190856890Y-87801476D01*
X191266924Y-87631645D01*
X191695183Y-87241358D01*
X191770000Y-87082046D01*
X191844817Y-87241358D01*
X192273076Y-87631645D01*
X192683110Y-87801476D01*
X192913000Y-87680155D01*
X192913000Y-86487000D01*
X190627000Y-86487000D01*
X190373000Y-86487000D01*
X190353000Y-86487000D01*
X190353000Y-86233000D01*
X190373000Y-86233000D01*
X190373000Y-85039845D01*
X190627000Y-85039845D01*
X190627000Y-86233000D01*
X192913000Y-86233000D01*
X192913000Y-85039845D01*
X192683110Y-84918524D01*
X192273076Y-85088355D01*
X191844817Y-85478642D01*
X191770000Y-85637954D01*
X191695183Y-85478642D01*
X191266924Y-85088355D01*
X190856890Y-84918524D01*
X190627000Y-85039845D01*
X190373000Y-85039845D01*
X190143110Y-84918524D01*
X189733076Y-85088355D01*
X189304817Y-85478642D01*
X189237702Y-85621553D01*
X189010054Y-85280853D01*
X188528285Y-84958946D01*
X187960000Y-84845907D01*
X187391715Y-84958946D01*
X186909946Y-85280853D01*
X186882150Y-85322452D01*
X186873162Y-85274683D01*
X186734090Y-85058559D01*
X186521890Y-84913569D01*
X186270000Y-84862560D01*
X184570000Y-84862560D01*
X184334683Y-84906838D01*
X184118559Y-85045910D01*
X183996192Y-85225000D01*
X165100000Y-85225000D01*
X164665654Y-85311397D01*
X164297433Y-85557434D01*
X161757436Y-88097432D01*
X161757433Y-88097434D01*
X159570409Y-90284459D01*
X159542370Y-90256371D01*
X159029100Y-90043243D01*
X158473339Y-90042758D01*
X157959697Y-90254990D01*
X157566371Y-90647630D01*
X157353243Y-91160900D01*
X157352758Y-91716661D01*
X157564990Y-92230303D01*
X157957630Y-92623629D01*
X158165512Y-92709949D01*
X157959697Y-92794990D01*
X157566371Y-93187630D01*
X157353243Y-93700900D01*
X157352758Y-94256661D01*
X157564990Y-94770303D01*
X157957630Y-95163629D01*
X158165512Y-95249949D01*
X157959697Y-95334990D01*
X157566371Y-95727630D01*
X157353243Y-96240900D01*
X157352758Y-96796661D01*
X157564990Y-97310303D01*
X157957630Y-97703629D01*
X158165512Y-97789949D01*
X157959697Y-97874990D01*
X157566371Y-98267630D01*
X157353243Y-98780900D01*
X157352758Y-99336661D01*
X157564990Y-99850303D01*
X157957630Y-100243629D01*
X158149727Y-100323395D01*
X158018857Y-100377603D01*
X157949392Y-100619787D01*
X158750000Y-101420395D01*
X159550608Y-100619787D01*
X159481143Y-100377603D01*
X159340682Y-100327491D01*
X159540303Y-100245010D01*
X159933629Y-99852370D01*
X160146757Y-99339100D01*
X160147242Y-98783339D01*
X159935010Y-98269697D01*
X159542370Y-97876371D01*
X159334488Y-97790051D01*
X159540303Y-97705010D01*
X159933629Y-97312370D01*
X160146757Y-96799100D01*
X160147242Y-96243339D01*
X159935010Y-95729697D01*
X159542370Y-95336371D01*
X159334488Y-95250051D01*
X159540303Y-95165010D01*
X159933629Y-94772370D01*
X160146757Y-94259100D01*
X160147242Y-93703339D01*
X159935010Y-93189697D01*
X159542370Y-92796371D01*
X159334488Y-92710051D01*
X159540303Y-92625010D01*
X159590400Y-92575000D01*
X160020000Y-92575000D01*
X160454346Y-92488603D01*
X160822566Y-92242566D01*
X162085000Y-90980132D01*
X162085000Y-104515000D01*
X161050000Y-104515000D01*
X160615654Y-104601397D01*
X160449329Y-104712532D01*
X160247434Y-104847434D01*
X158592308Y-106502560D01*
X157950000Y-106502560D01*
X157714683Y-106546838D01*
X157498559Y-106685910D01*
X157410356Y-106815000D01*
X153309885Y-106815000D01*
X153362000Y-106553000D01*
X153362000Y-102580213D01*
X157949392Y-102580213D01*
X158018857Y-102822397D01*
X158542302Y-103009144D01*
X159097368Y-102981362D01*
X159481143Y-102822397D01*
X159550608Y-102580213D01*
X158750000Y-101779605D01*
X157949392Y-102580213D01*
X153362000Y-102580213D01*
X153362000Y-101392302D01*
X157340856Y-101392302D01*
X157368638Y-101947368D01*
X157527603Y-102331143D01*
X157769787Y-102400608D01*
X158570395Y-101600000D01*
X158929605Y-101600000D01*
X159730213Y-102400608D01*
X159972397Y-102331143D01*
X160159144Y-101807698D01*
X160131362Y-101252632D01*
X159972397Y-100868857D01*
X159730213Y-100799392D01*
X158929605Y-101600000D01*
X158570395Y-101600000D01*
X157769787Y-100799392D01*
X157527603Y-100868857D01*
X157340856Y-101392302D01*
X153362000Y-101392302D01*
X153362000Y-100195014D01*
X153452062Y-100239268D01*
X153623000Y-100112734D01*
X153623000Y-99147000D01*
X153877000Y-99147000D01*
X153877000Y-100112734D01*
X154047938Y-100239268D01*
X154421821Y-100055552D01*
X154709568Y-99731049D01*
X154851229Y-99321131D01*
X154702563Y-99147000D01*
X153877000Y-99147000D01*
X153623000Y-99147000D01*
X153603000Y-99147000D01*
X153603000Y-98893000D01*
X153623000Y-98893000D01*
X153623000Y-98873000D01*
X153877000Y-98873000D01*
X153877000Y-98893000D01*
X154702563Y-98893000D01*
X154851229Y-98718869D01*
X154789440Y-98540074D01*
X154876441Y-98484090D01*
X155021431Y-98271890D01*
X155072440Y-98020000D01*
X155072440Y-97620000D01*
X155048056Y-97490411D01*
X155072440Y-97370000D01*
X155072440Y-96970000D01*
X155048056Y-96840411D01*
X155072440Y-96720000D01*
X155072440Y-96320000D01*
X155048056Y-96190411D01*
X155072440Y-96070000D01*
X155072440Y-95670000D01*
X155052550Y-95564295D01*
X155060000Y-95546310D01*
X155060000Y-95478750D01*
X155030996Y-95449746D01*
X155028162Y-95434683D01*
X154889090Y-95218559D01*
X154744844Y-95120000D01*
X154901250Y-95120000D01*
X155060000Y-94961250D01*
X155060000Y-94893690D01*
X154963327Y-94660301D01*
X154792910Y-94489885D01*
X154851229Y-94321131D01*
X154702563Y-94147000D01*
X153877000Y-94147000D01*
X153877000Y-94167000D01*
X153623000Y-94167000D01*
X153623000Y-94147000D01*
X152797437Y-94147000D01*
X152648771Y-94321131D01*
X152707090Y-94489885D01*
X152536673Y-94660301D01*
X152440000Y-94893690D01*
X152440000Y-94961250D01*
X152598750Y-95120000D01*
X152757067Y-95120000D01*
X152623559Y-95205910D01*
X152478569Y-95418110D01*
X152472965Y-95445785D01*
X152440000Y-95478750D01*
X152440000Y-95546310D01*
X152448468Y-95566753D01*
X152427560Y-95670000D01*
X152427560Y-96070000D01*
X152451944Y-96199589D01*
X152427560Y-96320000D01*
X152427560Y-96720000D01*
X152451944Y-96849589D01*
X152427560Y-96970000D01*
X152427560Y-97370000D01*
X152443487Y-97454645D01*
X151936566Y-97961566D01*
X151755561Y-98232459D01*
X151692000Y-98552000D01*
X151692000Y-98961292D01*
X151452000Y-98885000D01*
X151177000Y-98885000D01*
X151177000Y-99893000D01*
X151197000Y-99893000D01*
X151197000Y-100147000D01*
X151177000Y-100147000D01*
X151177000Y-101155000D01*
X151257000Y-101155000D01*
X151257000Y-101473000D01*
X151277000Y-101473000D01*
X151277000Y-101727000D01*
X151257000Y-101727000D01*
X151257000Y-102838250D01*
X151415750Y-102997000D01*
X151692000Y-102997000D01*
X151692000Y-106207132D01*
X151446572Y-106452560D01*
X150280000Y-106452560D01*
X150044683Y-106496838D01*
X149828559Y-106635910D01*
X149683569Y-106848110D01*
X149632560Y-107100000D01*
X149632560Y-108800000D01*
X149676838Y-109035317D01*
X149815910Y-109251441D01*
X150028110Y-109396431D01*
X150142301Y-109419555D01*
X149934817Y-109608642D01*
X149688514Y-110133108D01*
X149809181Y-110363000D01*
X151003000Y-110363000D01*
X151003000Y-110343000D01*
X151257000Y-110343000D01*
X151257000Y-110363000D01*
X152450819Y-110363000D01*
X152518937Y-110233223D01*
X157303035Y-110233223D01*
X157330222Y-110803454D01*
X157496136Y-111204005D01*
X157742255Y-111278139D01*
X158570395Y-110450000D01*
X158929605Y-110450000D01*
X159757745Y-111278139D01*
X160003864Y-111204005D01*
X160196965Y-110666777D01*
X160169778Y-110096546D01*
X160003864Y-109695995D01*
X159757745Y-109621861D01*
X158929605Y-110450000D01*
X158570395Y-110450000D01*
X157742255Y-109621861D01*
X157496136Y-109695995D01*
X157303035Y-110233223D01*
X152518937Y-110233223D01*
X152571486Y-110133108D01*
X152325183Y-109608642D01*
X152119496Y-109421192D01*
X152215317Y-109403162D01*
X152431441Y-109264090D01*
X152553808Y-109085000D01*
X157410982Y-109085000D01*
X157485910Y-109201441D01*
X157698110Y-109346431D01*
X157936201Y-109394646D01*
X157921861Y-109442255D01*
X158750000Y-110270395D01*
X159578139Y-109442255D01*
X159563855Y-109394833D01*
X159785317Y-109353162D01*
X160001441Y-109214090D01*
X160146431Y-109001890D01*
X160197440Y-108750000D01*
X160197440Y-108107692D01*
X161520132Y-106785000D01*
X162085000Y-106785000D01*
X162085000Y-106920000D01*
X162171397Y-107354346D01*
X162355891Y-107630460D01*
X162417434Y-107722566D01*
X162842560Y-108147692D01*
X162842560Y-108940000D01*
X162886838Y-109175317D01*
X162993759Y-109341477D01*
X162893569Y-109488110D01*
X162842560Y-109740000D01*
X162842560Y-111240000D01*
X162886838Y-111475317D01*
X162992482Y-111639492D01*
X162951673Y-111680301D01*
X162855000Y-111913690D01*
X162855000Y-112504250D01*
X163013750Y-112663000D01*
X164363000Y-112663000D01*
X164363000Y-112643000D01*
X164617000Y-112643000D01*
X164617000Y-112663000D01*
X165966250Y-112663000D01*
X166125000Y-112504250D01*
X166125000Y-111913690D01*
X166028327Y-111680301D01*
X165986366Y-111638340D01*
X165995481Y-111625000D01*
X169142560Y-111625000D01*
X169142560Y-112390000D01*
X169186838Y-112625317D01*
X169325910Y-112841441D01*
X169538110Y-112986431D01*
X169790000Y-113037440D01*
X171790000Y-113037440D01*
X172025317Y-112993162D01*
X172241441Y-112854090D01*
X172386431Y-112641890D01*
X172437440Y-112390000D01*
X172437440Y-111457745D01*
X175701861Y-111457745D01*
X175775995Y-111703864D01*
X176313223Y-111896965D01*
X176883454Y-111869778D01*
X177284005Y-111703864D01*
X177358139Y-111457745D01*
X176530000Y-110629605D01*
X175701861Y-111457745D01*
X172437440Y-111457745D01*
X172437440Y-110447692D01*
X172651909Y-110233223D01*
X175083035Y-110233223D01*
X175110222Y-110803454D01*
X175276136Y-111204005D01*
X175522255Y-111278139D01*
X176350395Y-110450000D01*
X176709605Y-110450000D01*
X177537745Y-111278139D01*
X177783864Y-111204005D01*
X177976965Y-110666777D01*
X177949778Y-110096546D01*
X177783864Y-109695995D01*
X177537745Y-109621861D01*
X176709605Y-110450000D01*
X176350395Y-110450000D01*
X175522255Y-109621861D01*
X175276136Y-109695995D01*
X175083035Y-110233223D01*
X172651909Y-110233223D01*
X173800133Y-109085000D01*
X175190982Y-109085000D01*
X175265910Y-109201441D01*
X175478110Y-109346431D01*
X175716201Y-109394646D01*
X175701861Y-109442255D01*
X176530000Y-110270395D01*
X177294644Y-109505750D01*
X183935000Y-109505750D01*
X183935000Y-110196309D01*
X184031673Y-110429698D01*
X184210301Y-110608327D01*
X184443690Y-110705000D01*
X185134250Y-110705000D01*
X185293000Y-110546250D01*
X185293000Y-109347000D01*
X184093750Y-109347000D01*
X183935000Y-109505750D01*
X177294644Y-109505750D01*
X177358139Y-109442255D01*
X177343855Y-109394833D01*
X177565317Y-109353162D01*
X177781441Y-109214090D01*
X177869644Y-109085000D01*
X179070000Y-109085000D01*
X179504346Y-108998603D01*
X179872566Y-108752566D01*
X180381441Y-108243691D01*
X183935000Y-108243691D01*
X183935000Y-108934250D01*
X184093750Y-109093000D01*
X185293000Y-109093000D01*
X185293000Y-107893750D01*
X185134250Y-107735000D01*
X184443690Y-107735000D01*
X184210301Y-107831673D01*
X184031673Y-108010302D01*
X183935000Y-108243691D01*
X180381441Y-108243691D01*
X185545694Y-103079438D01*
X186022848Y-102984526D01*
X186509029Y-102659670D01*
X186690000Y-102388828D01*
X186870971Y-102659670D01*
X187125000Y-102829407D01*
X187125000Y-104140000D01*
X187188561Y-104459541D01*
X187287380Y-104607434D01*
X187369566Y-104730434D01*
X190370749Y-107731617D01*
X189931715Y-107818946D01*
X189449946Y-108140853D01*
X189230000Y-108470026D01*
X189010054Y-108140853D01*
X188528285Y-107818946D01*
X187960000Y-107705907D01*
X187391715Y-107818946D01*
X186909946Y-108140853D01*
X186880597Y-108184777D01*
X186808327Y-108010302D01*
X186629699Y-107831673D01*
X186396310Y-107735000D01*
X185705750Y-107735000D01*
X185547000Y-107893750D01*
X185547000Y-109093000D01*
X185567000Y-109093000D01*
X185567000Y-109347000D01*
X185547000Y-109347000D01*
X185547000Y-110546250D01*
X185705750Y-110705000D01*
X186396310Y-110705000D01*
X186629699Y-110608327D01*
X186808327Y-110429698D01*
X186880597Y-110255223D01*
X186909946Y-110299147D01*
X187391715Y-110621054D01*
X187960000Y-110734093D01*
X188528285Y-110621054D01*
X189010054Y-110299147D01*
X189230000Y-109969974D01*
X189449946Y-110299147D01*
X189931715Y-110621054D01*
X190500000Y-110734093D01*
X191068285Y-110621054D01*
X191550054Y-110299147D01*
X191770000Y-109969974D01*
X191989946Y-110299147D01*
X192471715Y-110621054D01*
X193040000Y-110734093D01*
X193608285Y-110621054D01*
X194090054Y-110299147D01*
X194310000Y-109969974D01*
X194529946Y-110299147D01*
X195011715Y-110621054D01*
X195580000Y-110734093D01*
X196148285Y-110621054D01*
X196630054Y-110299147D01*
X196850000Y-109969974D01*
X197069946Y-110299147D01*
X197551715Y-110621054D01*
X198120000Y-110734093D01*
X198688285Y-110621054D01*
X199170054Y-110299147D01*
X199491961Y-109817378D01*
X199605000Y-109249093D01*
X199605000Y-109190907D01*
X199491961Y-108622622D01*
X199170054Y-108140853D01*
X198688285Y-107818946D01*
X198120000Y-107705907D01*
X197551715Y-107818946D01*
X197069946Y-108140853D01*
X196850000Y-108470026D01*
X196630054Y-108140853D01*
X196148285Y-107818946D01*
X195580000Y-107705907D01*
X195011715Y-107818946D01*
X194529946Y-108140853D01*
X194310000Y-108470026D01*
X194090054Y-108140853D01*
X193608285Y-107818946D01*
X193040000Y-107705907D01*
X192762061Y-107761193D01*
X188795000Y-103794132D01*
X188795000Y-102829407D01*
X189049029Y-102659670D01*
X189373885Y-102173489D01*
X189487959Y-101600000D01*
X189430373Y-101310495D01*
X192913000Y-97827868D01*
X192913000Y-106680000D01*
X192923006Y-106729410D01*
X192951447Y-106771035D01*
X192993841Y-106798315D01*
X193040000Y-106807000D01*
X211963000Y-106807000D01*
X211963000Y-114425983D01*
X211812291Y-114061239D01*
X211062707Y-113310345D01*
X210082827Y-112903464D01*
X209021828Y-112902538D01*
X208041239Y-113307709D01*
X207290345Y-114057293D01*
X206883464Y-115037173D01*
X206882538Y-116098172D01*
X207287709Y-117078761D01*
X208037293Y-117829655D01*
X208406589Y-117983000D01*
X152274017Y-117983000D01*
X152638761Y-117832291D01*
X153389655Y-117082707D01*
X153796536Y-116102827D01*
X153797462Y-115041828D01*
X153392291Y-114061239D01*
X152642707Y-113310345D01*
X152077739Y-113075750D01*
X162855000Y-113075750D01*
X162855000Y-113666310D01*
X162951673Y-113899699D01*
X163130302Y-114078327D01*
X163363691Y-114175000D01*
X164204250Y-114175000D01*
X164363000Y-114016250D01*
X164363000Y-112917000D01*
X164617000Y-112917000D01*
X164617000Y-114016250D01*
X164775750Y-114175000D01*
X165616309Y-114175000D01*
X165849698Y-114078327D01*
X166028327Y-113899699D01*
X166125000Y-113666310D01*
X166125000Y-113075750D01*
X165966250Y-112917000D01*
X164617000Y-112917000D01*
X164363000Y-112917000D01*
X163013750Y-112917000D01*
X162855000Y-113075750D01*
X152077739Y-113075750D01*
X151662827Y-112903464D01*
X150601828Y-112902538D01*
X149621239Y-113307709D01*
X148870345Y-114057293D01*
X148717000Y-114426589D01*
X148717000Y-110846892D01*
X149688514Y-110846892D01*
X149934817Y-111371358D01*
X150363076Y-111761645D01*
X150773110Y-111931476D01*
X151003000Y-111810155D01*
X151003000Y-110617000D01*
X151257000Y-110617000D01*
X151257000Y-111810155D01*
X151486890Y-111931476D01*
X151896924Y-111761645D01*
X152230391Y-111457745D01*
X157921861Y-111457745D01*
X157995995Y-111703864D01*
X158533223Y-111896965D01*
X159103454Y-111869778D01*
X159504005Y-111703864D01*
X159578139Y-111457745D01*
X158750000Y-110629605D01*
X157921861Y-111457745D01*
X152230391Y-111457745D01*
X152325183Y-111371358D01*
X152571486Y-110846892D01*
X152450819Y-110617000D01*
X151257000Y-110617000D01*
X151003000Y-110617000D01*
X149809181Y-110617000D01*
X149688514Y-110846892D01*
X148717000Y-110846892D01*
X148717000Y-101885750D01*
X149733000Y-101885750D01*
X149733000Y-102488309D01*
X149829673Y-102721698D01*
X150008301Y-102900327D01*
X150241690Y-102997000D01*
X150844250Y-102997000D01*
X151003000Y-102838250D01*
X151003000Y-101727000D01*
X149891750Y-101727000D01*
X149733000Y-101885750D01*
X148717000Y-101885750D01*
X148717000Y-100321874D01*
X149680881Y-100321874D01*
X149796734Y-100557823D01*
X149733000Y-100711691D01*
X149733000Y-101314250D01*
X149891750Y-101473000D01*
X151003000Y-101473000D01*
X151003000Y-100361750D01*
X150923000Y-100281750D01*
X150923000Y-100147000D01*
X149807046Y-100147000D01*
X149680881Y-100321874D01*
X148717000Y-100321874D01*
X148717000Y-99718126D01*
X149680881Y-99718126D01*
X149807046Y-99893000D01*
X150923000Y-99893000D01*
X150923000Y-98885000D01*
X150648000Y-98885000D01*
X150223322Y-99019998D01*
X149882632Y-99307237D01*
X149680881Y-99718126D01*
X148717000Y-99718126D01*
X148717000Y-93321874D01*
X149680881Y-93321874D01*
X149882632Y-93732763D01*
X150223322Y-94020002D01*
X150648000Y-94155000D01*
X150923000Y-94155000D01*
X150923000Y-93147000D01*
X151177000Y-93147000D01*
X151177000Y-94155000D01*
X151452000Y-94155000D01*
X151876678Y-94020002D01*
X152217368Y-93732763D01*
X152224190Y-93718869D01*
X152648771Y-93718869D01*
X152797437Y-93893000D01*
X153623000Y-93893000D01*
X153623000Y-92927266D01*
X153877000Y-92927266D01*
X153877000Y-93893000D01*
X154702563Y-93893000D01*
X154851229Y-93718869D01*
X154709568Y-93308951D01*
X154421821Y-92984448D01*
X154047938Y-92800732D01*
X153877000Y-92927266D01*
X153623000Y-92927266D01*
X153452062Y-92800732D01*
X153078179Y-92984448D01*
X152790432Y-93308951D01*
X152648771Y-93718869D01*
X152224190Y-93718869D01*
X152419119Y-93321874D01*
X152292954Y-93147000D01*
X151177000Y-93147000D01*
X150923000Y-93147000D01*
X149807046Y-93147000D01*
X149680881Y-93321874D01*
X148717000Y-93321874D01*
X148717000Y-92718126D01*
X149680881Y-92718126D01*
X149807046Y-92893000D01*
X150923000Y-92893000D01*
X150923000Y-92758250D01*
X151003000Y-92678250D01*
X151003000Y-91885000D01*
X151177000Y-91885000D01*
X151177000Y-92893000D01*
X152292954Y-92893000D01*
X152419119Y-92718126D01*
X152371296Y-92620729D01*
X152430327Y-92561698D01*
X152527000Y-92328309D01*
X152527000Y-91725750D01*
X152368250Y-91567000D01*
X151257000Y-91567000D01*
X151257000Y-91885000D01*
X151177000Y-91885000D01*
X151003000Y-91885000D01*
X151003000Y-91567000D01*
X149891750Y-91567000D01*
X149733000Y-91725750D01*
X149733000Y-92328309D01*
X149796734Y-92482177D01*
X149680881Y-92718126D01*
X148717000Y-92718126D01*
X148717000Y-90551691D01*
X149733000Y-90551691D01*
X149733000Y-91154250D01*
X149891750Y-91313000D01*
X151003000Y-91313000D01*
X151003000Y-90201750D01*
X151257000Y-90201750D01*
X151257000Y-91313000D01*
X152368250Y-91313000D01*
X152527000Y-91154250D01*
X152527000Y-90551691D01*
X152430327Y-90318302D01*
X152251699Y-90139673D01*
X152018310Y-90043000D01*
X151415750Y-90043000D01*
X151257000Y-90201750D01*
X151003000Y-90201750D01*
X150844250Y-90043000D01*
X150241690Y-90043000D01*
X150008301Y-90139673D01*
X149829673Y-90318302D01*
X149733000Y-90551691D01*
X148717000Y-90551691D01*
X148717000Y-83694017D01*
X148867709Y-84058761D01*
X149617293Y-84809655D01*
X150597173Y-85216536D01*
X151658172Y-85217462D01*
X152638761Y-84812291D01*
X153389655Y-84062707D01*
X153796536Y-83082827D01*
X153797462Y-82021828D01*
X153392291Y-81041239D01*
X152642707Y-80290345D01*
X152273411Y-80137000D01*
X208405983Y-80137000D01*
X208041239Y-80287709D01*
G36*
X171945057Y-87513106D02*
X171484722Y-87972637D01*
X171235284Y-88573352D01*
X171234716Y-89223795D01*
X171483106Y-89824943D01*
X171942637Y-90285278D01*
X172543352Y-90534716D01*
X173193795Y-90535284D01*
X173794943Y-90286894D01*
X174255278Y-89827363D01*
X174504716Y-89226648D01*
X174505284Y-88576205D01*
X174256894Y-87975057D01*
X173797363Y-87514722D01*
X173749867Y-87495000D01*
X177442607Y-87495000D01*
X176988200Y-87682757D01*
X176584176Y-88086077D01*
X176365250Y-88613309D01*
X176364752Y-89184187D01*
X176582757Y-89711800D01*
X176986077Y-90115824D01*
X177513309Y-90334750D01*
X178084187Y-90335248D01*
X178611800Y-90117243D01*
X179015824Y-89713923D01*
X179234750Y-89186691D01*
X179235248Y-88615813D01*
X179017243Y-88088200D01*
X178613923Y-87684176D01*
X178158337Y-87495000D01*
X183998808Y-87495000D01*
X184105910Y-87661441D01*
X184318110Y-87806431D01*
X184570000Y-87857440D01*
X186127428Y-87857440D01*
X176997434Y-96987434D01*
X176751397Y-97355654D01*
X176665000Y-97790000D01*
X176665000Y-98197233D01*
X176474233Y-98482736D01*
X176400264Y-98854604D01*
X175727434Y-99527434D01*
X175481397Y-99895654D01*
X175395000Y-100330000D01*
X175395000Y-106610982D01*
X175278559Y-106685910D01*
X175190356Y-106815000D01*
X173330000Y-106815000D01*
X172912179Y-106898110D01*
X172895654Y-106901397D01*
X172527433Y-107147434D01*
X171732307Y-107942560D01*
X169790000Y-107942560D01*
X169554683Y-107986838D01*
X169338559Y-108125910D01*
X169193569Y-108338110D01*
X169142560Y-108590000D01*
X169142560Y-109355000D01*
X165996844Y-109355000D01*
X165986241Y-109338523D01*
X166086431Y-109191890D01*
X166137440Y-108940000D01*
X166137440Y-107440000D01*
X166093162Y-107204683D01*
X165954090Y-106988559D01*
X165741890Y-106843569D01*
X165490000Y-106792560D01*
X164697692Y-106792560D01*
X164355000Y-106449868D01*
X164355000Y-104712532D01*
X165397073Y-104712532D01*
X165495736Y-104979387D01*
X166105461Y-105205908D01*
X166755460Y-105181856D01*
X167244264Y-104979387D01*
X167342927Y-104712532D01*
X171897073Y-104712532D01*
X171995736Y-104979387D01*
X172605461Y-105205908D01*
X173255460Y-105181856D01*
X173744264Y-104979387D01*
X173842927Y-104712532D01*
X172870000Y-103739605D01*
X171897073Y-104712532D01*
X167342927Y-104712532D01*
X166370000Y-103739605D01*
X165397073Y-104712532D01*
X164355000Y-104712532D01*
X164355000Y-103295461D01*
X164724092Y-103295461D01*
X164748144Y-103945460D01*
X164950613Y-104434264D01*
X165217468Y-104532927D01*
X166190395Y-103560000D01*
X166549605Y-103560000D01*
X167522532Y-104532927D01*
X167789387Y-104434264D01*
X168015908Y-103824539D01*
X167996331Y-103295461D01*
X171224092Y-103295461D01*
X171248144Y-103945460D01*
X171450613Y-104434264D01*
X171717468Y-104532927D01*
X172690395Y-103560000D01*
X173049605Y-103560000D01*
X174022532Y-104532927D01*
X174289387Y-104434264D01*
X174515908Y-103824539D01*
X174491856Y-103174540D01*
X174289387Y-102685736D01*
X174022532Y-102587073D01*
X173049605Y-103560000D01*
X172690395Y-103560000D01*
X171717468Y-102587073D01*
X171450613Y-102685736D01*
X171224092Y-103295461D01*
X167996331Y-103295461D01*
X167991856Y-103174540D01*
X167789387Y-102685736D01*
X167522532Y-102587073D01*
X166549605Y-103560000D01*
X166190395Y-103560000D01*
X165217468Y-102587073D01*
X164950613Y-102685736D01*
X164724092Y-103295461D01*
X164355000Y-103295461D01*
X164355000Y-102407468D01*
X165397073Y-102407468D01*
X166370000Y-103380395D01*
X167342927Y-102407468D01*
X171897073Y-102407468D01*
X172870000Y-103380395D01*
X173842927Y-102407468D01*
X173744264Y-102140613D01*
X173134539Y-101914092D01*
X172484540Y-101938144D01*
X171995736Y-102140613D01*
X171897073Y-102407468D01*
X167342927Y-102407468D01*
X167244264Y-102140613D01*
X166634539Y-101914092D01*
X165984540Y-101938144D01*
X165495736Y-102140613D01*
X165397073Y-102407468D01*
X164355000Y-102407468D01*
X164355000Y-99383795D01*
X164734716Y-99383795D01*
X164983106Y-99984943D01*
X165442637Y-100445278D01*
X166043352Y-100694716D01*
X166693795Y-100695284D01*
X167294943Y-100446894D01*
X167755278Y-99987363D01*
X168004716Y-99386648D01*
X168004718Y-99383795D01*
X171234716Y-99383795D01*
X171483106Y-99984943D01*
X171942637Y-100445278D01*
X172543352Y-100694716D01*
X173193795Y-100695284D01*
X173794943Y-100446894D01*
X174255278Y-99987363D01*
X174504716Y-99386648D01*
X174505284Y-98736205D01*
X174256894Y-98135057D01*
X173797363Y-97674722D01*
X173196648Y-97425284D01*
X172546205Y-97424716D01*
X171945057Y-97673106D01*
X171484722Y-98132637D01*
X171235284Y-98733352D01*
X171234716Y-99383795D01*
X168004718Y-99383795D01*
X168005284Y-98736205D01*
X167756894Y-98135057D01*
X167297363Y-97674722D01*
X166696648Y-97425284D01*
X166046205Y-97424716D01*
X165445057Y-97673106D01*
X164984722Y-98132637D01*
X164735284Y-98733352D01*
X164734716Y-99383795D01*
X164355000Y-99383795D01*
X164355000Y-94552532D01*
X165397073Y-94552532D01*
X165495736Y-94819387D01*
X166105461Y-95045908D01*
X166755460Y-95021856D01*
X167244264Y-94819387D01*
X167342927Y-94552532D01*
X171897073Y-94552532D01*
X171995736Y-94819387D01*
X172605461Y-95045908D01*
X173255460Y-95021856D01*
X173744264Y-94819387D01*
X173842927Y-94552532D01*
X172870000Y-93579605D01*
X171897073Y-94552532D01*
X167342927Y-94552532D01*
X166370000Y-93579605D01*
X165397073Y-94552532D01*
X164355000Y-94552532D01*
X164355000Y-93135461D01*
X164724092Y-93135461D01*
X164748144Y-93785460D01*
X164950613Y-94274264D01*
X165217468Y-94372927D01*
X166190395Y-93400000D01*
X166549605Y-93400000D01*
X167522532Y-94372927D01*
X167789387Y-94274264D01*
X168015908Y-93664539D01*
X167996331Y-93135461D01*
X171224092Y-93135461D01*
X171248144Y-93785460D01*
X171450613Y-94274264D01*
X171717468Y-94372927D01*
X172690395Y-93400000D01*
X173049605Y-93400000D01*
X174022532Y-94372927D01*
X174289387Y-94274264D01*
X174515908Y-93664539D01*
X174491856Y-93014540D01*
X174289387Y-92525736D01*
X174022532Y-92427073D01*
X173049605Y-93400000D01*
X172690395Y-93400000D01*
X171717468Y-92427073D01*
X171450613Y-92525736D01*
X171224092Y-93135461D01*
X167996331Y-93135461D01*
X167991856Y-93014540D01*
X167789387Y-92525736D01*
X167522532Y-92427073D01*
X166549605Y-93400000D01*
X166190395Y-93400000D01*
X165217468Y-92427073D01*
X164950613Y-92525736D01*
X164724092Y-93135461D01*
X164355000Y-93135461D01*
X164355000Y-92247468D01*
X165397073Y-92247468D01*
X166370000Y-93220395D01*
X167342927Y-92247468D01*
X171897073Y-92247468D01*
X172870000Y-93220395D01*
X173842927Y-92247468D01*
X173744264Y-91980613D01*
X173134539Y-91754092D01*
X172484540Y-91778144D01*
X171995736Y-91980613D01*
X171897073Y-92247468D01*
X167342927Y-92247468D01*
X167244264Y-91980613D01*
X166634539Y-91754092D01*
X165984540Y-91778144D01*
X165495736Y-91980613D01*
X165397073Y-92247468D01*
X164355000Y-92247468D01*
X164355000Y-88710132D01*
X164908193Y-88156939D01*
X164735284Y-88573352D01*
X164734716Y-89223795D01*
X164983106Y-89824943D01*
X165442637Y-90285278D01*
X166043352Y-90534716D01*
X166693795Y-90535284D01*
X167294943Y-90286894D01*
X167755278Y-89827363D01*
X168004716Y-89226648D01*
X168005284Y-88576205D01*
X167756894Y-87975057D01*
X167297363Y-87514722D01*
X167249867Y-87495000D01*
X171988877Y-87495000D01*
X171945057Y-87513106D01*
X171945057Y-87513106D01*
G37*
X171945057Y-87513106D02*
X171484722Y-87972637D01*
X171235284Y-88573352D01*
X171234716Y-89223795D01*
X171483106Y-89824943D01*
X171942637Y-90285278D01*
X172543352Y-90534716D01*
X173193795Y-90535284D01*
X173794943Y-90286894D01*
X174255278Y-89827363D01*
X174504716Y-89226648D01*
X174505284Y-88576205D01*
X174256894Y-87975057D01*
X173797363Y-87514722D01*
X173749867Y-87495000D01*
X177442607Y-87495000D01*
X176988200Y-87682757D01*
X176584176Y-88086077D01*
X176365250Y-88613309D01*
X176364752Y-89184187D01*
X176582757Y-89711800D01*
X176986077Y-90115824D01*
X177513309Y-90334750D01*
X178084187Y-90335248D01*
X178611800Y-90117243D01*
X179015824Y-89713923D01*
X179234750Y-89186691D01*
X179235248Y-88615813D01*
X179017243Y-88088200D01*
X178613923Y-87684176D01*
X178158337Y-87495000D01*
X183998808Y-87495000D01*
X184105910Y-87661441D01*
X184318110Y-87806431D01*
X184570000Y-87857440D01*
X186127428Y-87857440D01*
X176997434Y-96987434D01*
X176751397Y-97355654D01*
X176665000Y-97790000D01*
X176665000Y-98197233D01*
X176474233Y-98482736D01*
X176400264Y-98854604D01*
X175727434Y-99527434D01*
X175481397Y-99895654D01*
X175395000Y-100330000D01*
X175395000Y-106610982D01*
X175278559Y-106685910D01*
X175190356Y-106815000D01*
X173330000Y-106815000D01*
X172912179Y-106898110D01*
X172895654Y-106901397D01*
X172527433Y-107147434D01*
X171732307Y-107942560D01*
X169790000Y-107942560D01*
X169554683Y-107986838D01*
X169338559Y-108125910D01*
X169193569Y-108338110D01*
X169142560Y-108590000D01*
X169142560Y-109355000D01*
X165996844Y-109355000D01*
X165986241Y-109338523D01*
X166086431Y-109191890D01*
X166137440Y-108940000D01*
X166137440Y-107440000D01*
X166093162Y-107204683D01*
X165954090Y-106988559D01*
X165741890Y-106843569D01*
X165490000Y-106792560D01*
X164697692Y-106792560D01*
X164355000Y-106449868D01*
X164355000Y-104712532D01*
X165397073Y-104712532D01*
X165495736Y-104979387D01*
X166105461Y-105205908D01*
X166755460Y-105181856D01*
X167244264Y-104979387D01*
X167342927Y-104712532D01*
X171897073Y-104712532D01*
X171995736Y-104979387D01*
X172605461Y-105205908D01*
X173255460Y-105181856D01*
X173744264Y-104979387D01*
X173842927Y-104712532D01*
X172870000Y-103739605D01*
X171897073Y-104712532D01*
X167342927Y-104712532D01*
X166370000Y-103739605D01*
X165397073Y-104712532D01*
X164355000Y-104712532D01*
X164355000Y-103295461D01*
X164724092Y-103295461D01*
X164748144Y-103945460D01*
X164950613Y-104434264D01*
X165217468Y-104532927D01*
X166190395Y-103560000D01*
X166549605Y-103560000D01*
X167522532Y-104532927D01*
X167789387Y-104434264D01*
X168015908Y-103824539D01*
X167996331Y-103295461D01*
X171224092Y-103295461D01*
X171248144Y-103945460D01*
X171450613Y-104434264D01*
X171717468Y-104532927D01*
X172690395Y-103560000D01*
X173049605Y-103560000D01*
X174022532Y-104532927D01*
X174289387Y-104434264D01*
X174515908Y-103824539D01*
X174491856Y-103174540D01*
X174289387Y-102685736D01*
X174022532Y-102587073D01*
X173049605Y-103560000D01*
X172690395Y-103560000D01*
X171717468Y-102587073D01*
X171450613Y-102685736D01*
X171224092Y-103295461D01*
X167996331Y-103295461D01*
X167991856Y-103174540D01*
X167789387Y-102685736D01*
X167522532Y-102587073D01*
X166549605Y-103560000D01*
X166190395Y-103560000D01*
X165217468Y-102587073D01*
X164950613Y-102685736D01*
X164724092Y-103295461D01*
X164355000Y-103295461D01*
X164355000Y-102407468D01*
X165397073Y-102407468D01*
X166370000Y-103380395D01*
X167342927Y-102407468D01*
X171897073Y-102407468D01*
X172870000Y-103380395D01*
X173842927Y-102407468D01*
X173744264Y-102140613D01*
X173134539Y-101914092D01*
X172484540Y-101938144D01*
X171995736Y-102140613D01*
X171897073Y-102407468D01*
X167342927Y-102407468D01*
X167244264Y-102140613D01*
X166634539Y-101914092D01*
X165984540Y-101938144D01*
X165495736Y-102140613D01*
X165397073Y-102407468D01*
X164355000Y-102407468D01*
X164355000Y-99383795D01*
X164734716Y-99383795D01*
X164983106Y-99984943D01*
X165442637Y-100445278D01*
X166043352Y-100694716D01*
X166693795Y-100695284D01*
X167294943Y-100446894D01*
X167755278Y-99987363D01*
X168004716Y-99386648D01*
X168004718Y-99383795D01*
X171234716Y-99383795D01*
X171483106Y-99984943D01*
X171942637Y-100445278D01*
X172543352Y-100694716D01*
X173193795Y-100695284D01*
X173794943Y-100446894D01*
X174255278Y-99987363D01*
X174504716Y-99386648D01*
X174505284Y-98736205D01*
X174256894Y-98135057D01*
X173797363Y-97674722D01*
X173196648Y-97425284D01*
X172546205Y-97424716D01*
X171945057Y-97673106D01*
X171484722Y-98132637D01*
X171235284Y-98733352D01*
X171234716Y-99383795D01*
X168004718Y-99383795D01*
X168005284Y-98736205D01*
X167756894Y-98135057D01*
X167297363Y-97674722D01*
X166696648Y-97425284D01*
X166046205Y-97424716D01*
X165445057Y-97673106D01*
X164984722Y-98132637D01*
X164735284Y-98733352D01*
X164734716Y-99383795D01*
X164355000Y-99383795D01*
X164355000Y-94552532D01*
X165397073Y-94552532D01*
X165495736Y-94819387D01*
X166105461Y-95045908D01*
X166755460Y-95021856D01*
X167244264Y-94819387D01*
X167342927Y-94552532D01*
X171897073Y-94552532D01*
X171995736Y-94819387D01*
X172605461Y-95045908D01*
X173255460Y-95021856D01*
X173744264Y-94819387D01*
X173842927Y-94552532D01*
X172870000Y-93579605D01*
X171897073Y-94552532D01*
X167342927Y-94552532D01*
X166370000Y-93579605D01*
X165397073Y-94552532D01*
X164355000Y-94552532D01*
X164355000Y-93135461D01*
X164724092Y-93135461D01*
X164748144Y-93785460D01*
X164950613Y-94274264D01*
X165217468Y-94372927D01*
X166190395Y-93400000D01*
X166549605Y-93400000D01*
X167522532Y-94372927D01*
X167789387Y-94274264D01*
X168015908Y-93664539D01*
X167996331Y-93135461D01*
X171224092Y-93135461D01*
X171248144Y-93785460D01*
X171450613Y-94274264D01*
X171717468Y-94372927D01*
X172690395Y-93400000D01*
X173049605Y-93400000D01*
X174022532Y-94372927D01*
X174289387Y-94274264D01*
X174515908Y-93664539D01*
X174491856Y-93014540D01*
X174289387Y-92525736D01*
X174022532Y-92427073D01*
X173049605Y-93400000D01*
X172690395Y-93400000D01*
X171717468Y-92427073D01*
X171450613Y-92525736D01*
X171224092Y-93135461D01*
X167996331Y-93135461D01*
X167991856Y-93014540D01*
X167789387Y-92525736D01*
X167522532Y-92427073D01*
X166549605Y-93400000D01*
X166190395Y-93400000D01*
X165217468Y-92427073D01*
X164950613Y-92525736D01*
X164724092Y-93135461D01*
X164355000Y-93135461D01*
X164355000Y-92247468D01*
X165397073Y-92247468D01*
X166370000Y-93220395D01*
X167342927Y-92247468D01*
X171897073Y-92247468D01*
X172870000Y-93220395D01*
X173842927Y-92247468D01*
X173744264Y-91980613D01*
X173134539Y-91754092D01*
X172484540Y-91778144D01*
X171995736Y-91980613D01*
X171897073Y-92247468D01*
X167342927Y-92247468D01*
X167244264Y-91980613D01*
X166634539Y-91754092D01*
X165984540Y-91778144D01*
X165495736Y-91980613D01*
X165397073Y-92247468D01*
X164355000Y-92247468D01*
X164355000Y-88710132D01*
X164908193Y-88156939D01*
X164735284Y-88573352D01*
X164734716Y-89223795D01*
X164983106Y-89824943D01*
X165442637Y-90285278D01*
X166043352Y-90534716D01*
X166693795Y-90535284D01*
X167294943Y-90286894D01*
X167755278Y-89827363D01*
X168004716Y-89226648D01*
X168005284Y-88576205D01*
X167756894Y-87975057D01*
X167297363Y-87514722D01*
X167249867Y-87495000D01*
X171988877Y-87495000D01*
X171945057Y-87513106D01*
M02*
