G04 #@! TF.FileFunction,Copper,L1,Top,Signal*
%FSLAX46Y46*%
G04 Gerber Fmt 4.6, Leading zero omitted, Abs format (unit mm)*
G04 Created by KiCad (PCBNEW 4.0.6-e0-6349~53~ubuntu16.04.1) date Fri Jul 14 14:26:54 2017*
%MOMM*%
%LPD*%
G01*
G04 APERTURE LIST*
%ADD10C,0.100000*%
%ADD11R,1.727200X1.727200*%
%ADD12O,1.727200X1.727200*%
%ADD13R,1.600000X1.600000*%
%ADD14C,1.600000*%
%ADD15O,0.950000X1.250000*%
%ADD16O,1.550000X1.000000*%
%ADD17R,1.700000X1.700000*%
%ADD18O,1.700000X1.700000*%
%ADD19C,1.524000*%
%ADD20R,1.524000X1.524000*%
%ADD21O,1.600000X1.600000*%
%ADD22C,2.000000*%
%ADD23C,4.064000*%
%ADD24C,1.000000*%
%ADD25C,0.400000*%
G04 APERTURE END LIST*
D10*
D11*
X185420000Y-93980000D03*
D12*
X187960000Y-93980000D03*
X185420000Y-96520000D03*
X187960000Y-96520000D03*
X185420000Y-99060000D03*
X187960000Y-99060000D03*
X185420000Y-101600000D03*
X187960000Y-101600000D03*
D13*
X158750000Y-107950000D03*
D14*
X158750000Y-110450000D03*
D13*
X176530000Y-107950000D03*
D14*
X176530000Y-110450000D03*
D15*
X153750000Y-99020000D03*
X153750000Y-94020000D03*
D16*
X151050000Y-100020000D03*
X151050000Y-93020000D03*
D17*
X185420000Y-109220000D03*
D18*
X187960000Y-109220000D03*
X190500000Y-109220000D03*
X193040000Y-109220000D03*
X195580000Y-109220000D03*
X198120000Y-109220000D03*
D17*
X151130000Y-107950000D03*
D18*
X151130000Y-110490000D03*
D17*
X185420000Y-86360000D03*
D18*
X187960000Y-86360000D03*
X190500000Y-86360000D03*
X193040000Y-86360000D03*
X195580000Y-86360000D03*
X198120000Y-86360000D03*
X200660000Y-86360000D03*
X203200000Y-86360000D03*
D19*
X158750000Y-101600000D03*
X158750000Y-99060000D03*
X158750000Y-96520000D03*
X158750000Y-93980000D03*
X158750000Y-91440000D03*
D20*
X151130000Y-91440000D03*
X151130000Y-101600000D03*
D14*
X177800000Y-88900000D03*
D21*
X177800000Y-99060000D03*
D22*
X166370000Y-93400000D03*
X166370000Y-88900000D03*
X172870000Y-93400000D03*
X172870000Y-88900000D03*
X166370000Y-103560000D03*
X166370000Y-99060000D03*
X172870000Y-103560000D03*
X172870000Y-99060000D03*
D23*
X209550000Y-82550000D03*
X209550000Y-115570000D03*
X151130000Y-115570000D03*
X151130000Y-82550000D03*
D24*
X158750000Y-110450000D02*
X156250000Y-110450000D01*
X154940000Y-105410000D02*
X158750000Y-101600000D01*
X154940000Y-109140000D02*
X154940000Y-105410000D01*
X156250000Y-110450000D02*
X154940000Y-109140000D01*
X158750000Y-101600000D02*
X164410000Y-101600000D01*
X164410000Y-101600000D02*
X166370000Y-103560000D01*
D25*
X195580000Y-109220000D02*
X195580000Y-93980000D01*
X195580000Y-93980000D02*
X203200000Y-86360000D01*
X203200000Y-86360000D02*
X200660000Y-83820000D01*
X180340000Y-88900000D02*
X185420000Y-93980000D01*
X180340000Y-85090000D02*
X180340000Y-88900000D01*
X181610000Y-83820000D02*
X180340000Y-85090000D01*
X200660000Y-83820000D02*
X181610000Y-83820000D01*
X172870000Y-99060000D02*
X173990000Y-99060000D01*
X190500000Y-101600000D02*
X187960000Y-99060000D01*
X190500000Y-104140000D02*
X190500000Y-101600000D01*
X189230000Y-105410000D02*
X190500000Y-104140000D01*
X180340000Y-105410000D02*
X189230000Y-105410000D01*
X173990000Y-99060000D02*
X180340000Y-105410000D01*
X166370000Y-99060000D02*
X172870000Y-99060000D01*
X187960000Y-99060000D02*
X198120000Y-88900000D01*
X198120000Y-88900000D02*
X198120000Y-86360000D01*
X195580000Y-86360000D02*
X195580000Y-88900000D01*
X195580000Y-88900000D02*
X187960000Y-96520000D01*
X166370000Y-88900000D02*
X172870000Y-88900000D01*
X172870000Y-88900000D02*
X177800000Y-88900000D01*
X177800000Y-88900000D02*
X182880000Y-93980000D01*
X182880000Y-93980000D02*
X182880000Y-96520000D01*
X182880000Y-96520000D02*
X185420000Y-99060000D01*
M02*
