M48
INCH,TZ
T1C0.020
T2C0.022
T3C0.030
T4C0.031
T5C0.039
T6C0.040
T7C0.043
T8C0.120
%
G90
G05
T3
X59500Y-36000
X59500Y-40000
X62500Y-36000
X62500Y-37000
X62500Y-38000
X62500Y-39000
X62500Y-40000
T4
X62500Y-42500
X62500Y-43484
X69500Y-42500
X69500Y-43484
X70000Y-35000
X70000Y-39000
T5
X59500Y-42500
X59500Y-43500
X73000Y-34000
X73000Y-43000
X74000Y-34000
X74000Y-43000
X75000Y-34000
X75000Y-43000
X76000Y-34000
X76000Y-43000
X77000Y-34000
X77000Y-43000
X78000Y-34000
X78000Y-43000
X79000Y-34000
X80000Y-34000
T6
X73000Y-37000
X73000Y-38000
X73000Y-39000
X73000Y-40000
X74000Y-37000
X74000Y-38000
X74000Y-39000
X74000Y-40000
T7
X65500Y-35000
X65500Y-36772
X65500Y-39000
X65500Y-40772
X68059Y-35000
X68059Y-36772
X68059Y-39000
X68059Y-40772
T8
X59500Y-32500
X59500Y-45500
X82500Y-32500
X82500Y-45500
T1
X59341Y-36622G85X59596Y-36622
G05
X59341Y-39378G85X59596Y-39378
G05
T2
X60531Y-36957G85X60531Y-37075
G05
X60531Y-38925G85X60531Y-39043
G05
T0
M30
